<svg viewBox="0 0 174.55 139.87" xmlns="http://www.w3.org/2000/svg">
    <path d="m5.73 18.35h9.13v50.2c0 9-6.27 13.52-14.86 13.52v-8.6c4.39 0 5.73-1.7 5.73-8.32zm0-18.35h9.13v9.13h-9.13z" class="white-fill"></path>
    <path d="m40.54 59.6c-2.33 2.6-4.12 4.66-8.68 4.66-3.67 0-6.36-1.35-8-4.3-1.07-2-1.52-4.74-1.52-9.75v-17.28c0-6.53.27-9.12 1.43-11 1.52-2.42 3.76-4.12 8.15-4.12a9.79 9.79 0 0 1 8.41 4.65h.18v-22.46h9.13v63.72h-9.1zm-9.04-10.6c0 3.67 1.34 6.18 4.47 6.18 2.78 0 4.57-2.33 4.57-5.64v-17.68a4.62 4.62 0 0 0 -4.54-4.92c-3.49 0-4.47 2.5-4.47 5.37z" class="white-fill"></path>
    <path d="m41.13 88.69a4.51 4.51 0 0 0 -4.65-4.69 4.39 4.39 0 0 0 -4.48 4.6c0 1.7.45 3.31 3.85 4.66l5.37 2.14c6.8 2.6 9 7.43 9 12.8a13.45 13.45 0 0 1 -13.6 13.69c-7.16 0-13.25-4.74-13.61-13.69h8.59c.36 2.51 1.52 5.1 4.93 5.1a4.94 4.94 0 0 0 5.1-4.92c0-2.51-1.08-4.21-4.57-5.55l-4.38-1.61c-5.73-2.15-9.22-6.44-9.22-12.53a13.13 13.13 0 0 1 13.37-13.24c7.43 0 12.8 5.72 12.89 13.24z" class="white-fill"></path>
    <path d="m56.07 62.2h9.13v13.8h5.64v7.16h-5.64v25.15c0 4.21 1.61 4.47 5.64 4.47v8.6h-3.76c-8.24 0-11-5.82-11-10.65v-27.59h-4.57v-7.14h4.56z" class="white-fill"></path>
    <path d="m91.6 116.7h-.18c-2.42 3.3-4.42 5.19-8.77 5.19-4.21 0-9.85-2.06-9.85-12.08 0-10.38 3-15.39 14.41-15.39 1.26 0 2.51.18 4.39.27v-4.75c0-3-1.17-5.37-4.57-5.37a5.32 5.32 0 0 0 -5.19 4.57h-8.84a15 15 0 0 1 4.12-9.85 13.73 13.73 0 0 1 9.88-3.84c7.61 0 13.7 4.83 13.7 14.32v31.59h-9.1zm0-14.85a13.28 13.28 0 0 0 -2.51-.27c-3.94 0-7.16 1.61-7.16 6.44 0 3.49 1.79 5.82 4.75 5.82s4.92-2.15 4.92-5.82z" class="white-fill"></path>
    <path d="m107.43 76h9.13v45.38h-9.13z" class="grey-fill"></path>
    <path d="m124.08 76h9.13v4.84c3.75-3.32 6.8-5.37 12.08-5.37v9.66a7.28 7.28 0 0 0 -2.78-.54c-3.85 0-9.3 2.42-9.3 9.85v26.94h-9.13z" class="white-fill"></path>
    <path d="m165.51 88.69a4.51 4.51 0 0 0 -4.65-4.69 4.39 4.39 0 0 0 -4.48 4.56c0 1.7.45 3.31 3.85 4.66l5.37 2.14c6.8 2.6 9 7.43 9 12.8a13.45 13.45 0 0 1 -13.6 13.73c-7.16 0-13.25-4.74-13.61-13.69h8.59c.36 2.51 1.53 5.1 4.93 5.1a4.94 4.94 0 0 0 5.1-4.92c0-2.51-1.08-4.21-4.57-5.55l-4.44-1.61c-5.73-2.15-9.22-6.44-9.22-12.53a13.14 13.14 0 0 1 13.42-13.24c7.43 0 12.8 5.72 12.89 13.24z" class="white-fill"></path>
    <path d="m64.44 7.28h34.45v10.6h-34.45z" class="gold-fill" transform="matrix(-1 0 0 -1 163.33 25.16)"></path>
    <path d="m64.44 25.41h44.16v10.6h-44.16z" class="grey-fill" transform="matrix(-1 0 0 -1 173.04 61.42)"></path>
    <path d="m64.44 43.54h52.79v10.6h-52.79z" class="blue-fill" transform="matrix(-1 0 0 -1 181.67 97.68)"></path>
    <g>
        <path class="gold-fill" d="m24.94 132.31 2.33 6.21 2.34-6.21h1.39v7.39h-1v-6.14l-2.31 6.14h-.84l-2.3-6.14v6.14h-.94v-7.39z"></path>
        <path class="gold-fill" d="m38.73 132.31v.83h-4.12v2.35h3.84v.83h-3.84v2.56h4.15v.82h-5.14v-7.39z"></path>
        <path class="gold-fill" d="m40.2 133.14v-.83h5.91v.83h-2.47v6.56h-1v-6.56z"></path>
        <path class="gold-fill" d="m50.1 132.31 2.9 7.39h-1.09l-.81-2.22h-3.1l-.83 2.22h-1l2.83-7.39zm.69 4.34-1.23-3.45-1.25 3.45z"></path>
        <path class="gold-fill" d="m55.74 132.31v6.57h3.91v.82h-4.9v-7.39z"></path>
        <path class="gold-fill" d="m70.36 136.73v.71h-2.25v2.26h-.71v-2.26h-2.25v-.71h2.25v-2.26h.71v2.26z"></path>
        <path class="gold-fill" d="m82.27 139.7-1.69-6.21-1.71 6.21h-1l-1.9-7.39h1l1.44 6.15 1.65-6.15h1.07l1.63 6.15 1.51-6.15h1l-2 7.39z"></path>
        <path class="gold-fill" d="m87 134.55a3.68 3.68 0 0 1 .67-1.23 3.25 3.25 0 0 1 1.11-.86 3.87 3.87 0 0 1 3.08 0 3.16 3.16 0 0 1 1.11.86 3.68 3.68 0 0 1 .67 1.23 4.74 4.74 0 0 1 .26 1.45 4.68 4.68 0 0 1 -.22 1.45 3.63 3.63 0 0 1 -.68 1.25 3.14 3.14 0 0 1 -1.11.85 3.87 3.87 0 0 1 -3.08 0 3.23 3.23 0 0 1 -1.11-.85 3.63 3.63 0 0 1 -.67-1.24 5 5 0 0 1 -.22-1.45 5.06 5.06 0 0 1 .19-1.46zm.91 2.56a3 3 0 0 0 .46 1 2.32 2.32 0 0 0 .79.7 2.48 2.48 0 0 0 1.16.26 2.45 2.45 0 0 0 1.16-.26 2.36 2.36 0 0 0 .8-.7 2.83 2.83 0 0 0 .45-1 4.11 4.11 0 0 0 0-2.2 2.75 2.75 0 0 0 -.45-1 2.56 2.56 0 0 0 -3.12-.7 2.32 2.32 0 0 0 -.79.7 3 3 0 0 0 -.46 1 4.11 4.11 0 0 0 0 2.2z"></path>
        <path class="gold-fill" d="m96 134.55a3.65 3.65 0 0 1 .66-1.23 3.25 3.25 0 0 1 1.11-.86 3.42 3.42 0 0 1 1.54-.32 3.46 3.46 0 0 1 1.55.32 3.13 3.13 0 0 1 1.1.86 3.68 3.68 0 0 1 .67 1.23 4.74 4.74 0 0 1 .22 1.46 4.68 4.68 0 0 1 -.22 1.45 3.63 3.63 0 0 1 -.67 1.24 3.1 3.1 0 0 1 -1.1.85 3.61 3.61 0 0 1 -1.55.32 3.56 3.56 0 0 1 -1.54-.32 3.23 3.23 0 0 1 -1.11-.85 3.61 3.61 0 0 1 -.66-1.24 4.68 4.68 0 0 1 -.23-1.45 4.74 4.74 0 0 1 .23-1.46zm.9 2.56a3 3 0 0 0 .46 1 2.32 2.32 0 0 0 .79.7 2.51 2.51 0 0 0 1.16.26 2.45 2.45 0 0 0 1.16-.26 2.36 2.36 0 0 0 .8-.7 3 3 0 0 0 .46-1 4.39 4.39 0 0 0 0-2.2 3 3 0 0 0 -.46-1 2.28 2.28 0 0 0 -2-1 2.39 2.39 0 0 0 -1.16.26 2.32 2.32 0 0 0 -.79.7 3 3 0 0 0 -.46 1 4.39 4.39 0 0 0 0 2.2z"></path>
        <path class="gold-fill" d="m107.58 132.31a3.69 3.69 0 0 1 2.63.87 3.51 3.51 0 0 1 .92 2.65 5.9 5.9 0 0 1 -.21 1.65 3 3 0 0 1 -.64 1.21 2.85 2.85 0 0 1 -1.11.76 4.5 4.5 0 0 1 -1.59.25h-2.58v-7.39zm.08 6.57h.41a2.85 2.85 0 0 0 .53-.12 2.5 2.5 0 0 0 .56-.29 1.85 1.85 0 0 0 .49-.51 2.83 2.83 0 0 0 .35-.8 4 4 0 0 0 .14-1.16 4.82 4.82 0 0 0 -.13-1.19 2.16 2.16 0 0 0 -.42-.89 2 2 0 0 0 -.76-.56 3.22 3.22 0 0 0 -1.15-.19h-1.68v5.74z"></path>
        <path class="gold-fill" d="m120.37 132.31 2.89 7.39h-1.09l-.81-2.22h-3.12l-.83 2.22h-1l2.87-7.39zm.68 4.34-1.23-3.45-1.25 3.45z"></path>
        <path class="gold-fill" d="m128.5 132.31a2.47 2.47 0 0 1 1.65.52 1.81 1.81 0 0 1 .59 1.42 2.28 2.28 0 0 1 -.3 1.18 1.56 1.56 0 0 1 -1 .69 1.24 1.24 0 0 1 .52.21 1.06 1.06 0 0 1 .32.35 1.51 1.51 0 0 1 .18.45 4.17 4.17 0 0 1 .09.51v.55a3.31 3.31 0 0 0 .05.55 3.81 3.81 0 0 0 .12.51 1.18 1.18 0 0 0 .23.43h-1.1a.74.74 0 0 1 -.14-.31 2.76 2.76 0 0 1 0-.44c0-.16 0-.33 0-.52a4.87 4.87 0 0 0 -.06-.55c0-.18-.07-.35-.11-.51a1.35 1.35 0 0 0 -.19-.42.86.86 0 0 0 -.36-.29 1.17 1.17 0 0 0 -.58-.11h-2.41v3.15h-1v-7.39zm.2 3.36a1.57 1.57 0 0 0 .55-.2 1.13 1.13 0 0 0 .37-.41 1.4 1.4 0 0 0 .14-.66 1.32 1.32 0 0 0 -.31-.91 1.29 1.29 0 0 0 -1-.35h-2.45v2.58h2.05a4.4 4.4 0 0 0 .65-.05z"></path>
        <path class="gold-fill" d="m132.17 133.14v-.83h5.91v.83h-2.46v6.56h-1v-6.56z"></path>
        <path class="gold-fill" d="m141 132.31v7.39h-1v-7.39z"></path>
        <path class="gold-fill" d="m147.35 133.32a2.06 2.06 0 0 0 -1.26-.35 3.15 3.15 0 0 0 -.61.06 1.77 1.77 0 0 0 -.53.2 1.1 1.1 0 0 0 -.51 1 .77.77 0 0 0 .2.55 1.44 1.44 0 0 0 .54.35 4.58 4.58 0 0 0 .76.22l.86.19a8.65 8.65 0 0 1 .87.25 3.15 3.15 0 0 1 .76.37 1.7 1.7 0 0 1 .74 1.52 1.88 1.88 0 0 1 -.26 1 2.35 2.35 0 0 1 -.68.69 3.19 3.19 0 0 1 -.93.38 4.44 4.44 0 0 1 -1 .12 4 4 0 0 1 -1.17-.16 2.88 2.88 0 0 1 -1-.47 2.24 2.24 0 0 1 -.66-.8 2.66 2.66 0 0 1 -.24-1.17h.93a1.66 1.66 0 0 0 .18.8 1.63 1.63 0 0 0 .48.56 2 2 0 0 0 .68.32 3.21 3.21 0 0 0 .81.1 3.79 3.79 0 0 0 .69-.05 2 2 0 0 0 .61-.21 1.3 1.3 0 0 0 .43-.41 1.2 1.2 0 0 0 .17-.66.92.92 0 0 0 -.21-.63 1.54 1.54 0 0 0 -.53-.38 4.64 4.64 0 0 0 -.77-.25l-.86-.19a8.37 8.37 0 0 1 -.84-.27 2.78 2.78 0 0 1 -.76-.34 1.5 1.5 0 0 1 -.54-.55 1.54 1.54 0 0 1 -.21-.84 2 2 0 0 1 .23-1 2.06 2.06 0 0 1 .61-.67 2.5 2.5 0 0 1 .86-.39 3.64 3.64 0 0 1 1-.13 3.87 3.87 0 0 1 1.05.13 2.32 2.32 0 0 1 .86.43 2.11 2.11 0 0 1 .58.73 2.71 2.71 0 0 1 .23 1h-.93a1.57 1.57 0 0 0 -.63-1.05z"></path>
        <path class="gold-fill" d="m154.49 132.31 2.89 7.39h-1.09l-.81-2.22h-3.12l-.83 2.22h-1l2.88-7.39zm.68 4.34-1.23-3.45-1.25 3.45z"></path>
        <path class="gold-fill" d="m160.17 132.31 3.89 6v-6h.94v7.39h-1.08l-3.86-5.93v5.93h-.93v-7.39z"></path>
        <path class="gold-fill" d="m171.35 133.32a2.08 2.08 0 0 0 -1.26-.35 3.08 3.08 0 0 0 -.61.06 1.83 1.83 0 0 0 -.54.2 1.1 1.1 0 0 0 -.51 1 .77.77 0 0 0 .2.55 1.63 1.63 0 0 0 .54.35 4.89 4.89 0 0 0 .76.22l.87.19a8.47 8.47 0 0 1 .86.25 2.83 2.83 0 0 1 .76.37 1.72 1.72 0 0 1 .54.6 1.84 1.84 0 0 1 .2.92 1.88 1.88 0 0 1 -.26 1 2.24 2.24 0 0 1 -.68.69 3 3 0 0 1 -.93.38 4.44 4.44 0 0 1 -1 .12 4.08 4.08 0 0 1 -1.17-.16 2.83 2.83 0 0 1 -1-.47 2.37 2.37 0 0 1 -.67-.8 2.66 2.66 0 0 1 -.24-1.17h.93a1.66 1.66 0 0 0 .18.8 1.63 1.63 0 0 0 .48.56 2.19 2.19 0 0 0 .69.32 3.1 3.1 0 0 0 .81.1 3.68 3.68 0 0 0 .7-.05 1.91 1.91 0 0 0 .61-.21 1.16 1.16 0 0 0 .6-1.07 1 1 0 0 0 -.2-.63 1.69 1.69 0 0 0 -.54-.38 4.52 4.52 0 0 0 -.76-.25l-.87-.19a8.37 8.37 0 0 1 -.84-.27 2.93 2.93 0 0 1 -.76-.34 1.58 1.58 0 0 1 -.54-.55 1.63 1.63 0 0 1 -.2-.84 1.91 1.91 0 0 1 .23-1 2 2 0 0 1 .6-.67 2.5 2.5 0 0 1 .86-.39 3.64 3.64 0 0 1 1-.13 4 4 0 0 1 1.06.13 2.36 2.36 0 0 1 .85.43 2 2 0 0 1 .58.73 2.54 2.54 0 0 1 .23 1h-.93a1.56 1.56 0 0 0 -.63-1.05z"></path>
    </g>
</svg>